<?xml version="1.0" encoding="UTF-8" standalone="no"?>
<!DOCTYPE svg PUBLIC "-//W3C//DTD SVG 1.1//EN"
 "http://www.w3.org/Graphics/SVG/1.1/DTD/svg11.dtd">
<!-- Generated by graphviz version 2.40.1 (20161225.0304)
 -->
<!-- Title: dependencies Pages: 1 -->
<svg width="1517pt" height="284pt"
 viewBox="0.00 0.00 1517.00 284.00" xmlns="http://www.w3.org/2000/svg" xmlns:xlink="http://www.w3.org/1999/xlink">
<g id="graph0" class="graph" transform="scale(1 1) rotate(0) translate(4 280)">
<title>dependencies</title>
<polygon fill="#ffffff" stroke="transparent" points="-4,4 -4,-280 1513,-280 1513,4 -4,4"/>
<text text-anchor="start" x="733.5091" y="-42.4" font-family="sans-serif" font-weight="bold" font-size="14.00" fill="#000000">Legend</text>
<polygon fill="#ffffb3" stroke="transparent" points="520.5,-10 520.5,-30 540.5,-30 540.5,-10 520.5,-10"/>
<text text-anchor="start" x="544.129" y="-15.4" font-family="sans-serif" font-size="14.00" fill="#000000"> &#160;Declarations</text>
<polygon fill="#8dd3c7" stroke="transparent" points="633.5,-10 633.5,-30 653.5,-30 653.5,-10 633.5,-10"/>
<text text-anchor="start" x="657.2251" y="-15.4" font-family="sans-serif" font-size="14.00" fill="#000000"> &#160;Module</text>
<polygon fill="#80b1d3" stroke="transparent" points="719.5,-10 719.5,-30 739.5,-30 739.5,-10 719.5,-10"/>
<text text-anchor="start" x="743.2812" y="-15.4" font-family="sans-serif" font-size="14.00" fill="#000000"> &#160;Bootstrap</text>
<polygon fill="#fdb462" stroke="transparent" points="816.5,-10 816.5,-30 836.5,-30 836.5,-10 816.5,-10"/>
<text text-anchor="start" x="840.1732" y="-15.4" font-family="sans-serif" font-size="14.00" fill="#000000"> &#160;Providers</text>
<polygon fill="#fb8072" stroke="transparent" points="912.5,-10 912.5,-30 932.5,-30 932.5,-10 912.5,-10"/>
<text text-anchor="start" x="936.2258" y="-15.4" font-family="sans-serif" font-size="14.00" fill="#000000"> &#160;Exports</text>
<g id="clust1" class="cluster">
<title>cluster_AppModule</title>
<polygon fill="none" stroke="#000000" stroke-dasharray="1,5" points="8,-70 8,-268 1501,-268 1501,-70 8,-70"/>
</g>
<g id="clust2" class="cluster">
<title>cluster_AppModule_declarations</title>
<polygon fill="none" stroke="#000000" points="1065,-78 1065,-130 1493,-130 1493,-78 1065,-78"/>
</g>
<g id="clust6" class="cluster">
<title>cluster_AppModule_imports</title>
<polygon fill="none" stroke="#000000" points="16,-78 16,-130 1057,-130 1057,-78 16,-78"/>
</g>
<g id="clust8" class="cluster">
<title>cluster_AppModule_bootstrap</title>
<polygon fill="none" stroke="#000000" points="727,-208 727,-260 851,-260 851,-208 727,-208"/>
</g>
<!-- AppComponent -->
<g id="node1" class="node">
<title>AppComponent</title>
<polygon fill="#ffffb3" stroke="#000000" points="1484.9399,-122 1379.0601,-122 1379.0601,-86 1484.9399,-86 1484.9399,-122"/>
<text text-anchor="middle" x="1432" y="-99.8" font-family="Times,serif" font-size="14.00" fill="#000000">AppComponent</text>
</g>
<!-- AppModule -->
<g id="node4" class="node">
<title>AppModule</title>
<polygon fill="#8dd3c7" stroke="#000000" points="830.6571,-187 827.6571,-191 806.6571,-191 803.6571,-187 747.3429,-187 747.3429,-151 830.6571,-151 830.6571,-187"/>
<text text-anchor="middle" x="789" y="-164.8" font-family="Times,serif" font-size="14.00" fill="#000000">AppModule</text>
</g>
<!-- AppComponent&#45;&gt;AppModule -->
<g id="edge1" class="edge">
<title>AppComponent&#45;&gt;AppModule</title>
<path fill="none" stroke="#000000" d="M1432,-122.0109C1432,-144.4852 1432,-180 1432,-180 1432,-180 840.6936,-180 840.6936,-180"/>
<polygon fill="#000000" stroke="#000000" points="840.6936,-176.5001 830.6936,-180 840.6936,-183.5001 840.6936,-176.5001"/>
</g>
<!-- VideoDetailsComponent -->
<g id="node2" class="node">
<title>VideoDetailsComponent</title>
<polygon fill="#ffffb3" stroke="#000000" points="1361.6965,-122 1206.3035,-122 1206.3035,-86 1361.6965,-86 1361.6965,-122"/>
<text text-anchor="middle" x="1284" y="-99.8" font-family="Times,serif" font-size="14.00" fill="#000000">VideoDetailsComponent</text>
</g>
<!-- VideoDetailsComponent&#45;&gt;AppModule -->
<g id="edge2" class="edge">
<title>VideoDetailsComponent&#45;&gt;AppModule</title>
<path fill="none" stroke="#000000" d="M1284,-122.1289C1284,-142.5724 1284,-173 1284,-173 1284,-173 840.7768,-173 840.7768,-173"/>
<polygon fill="#000000" stroke="#000000" points="840.7768,-169.5001 830.7768,-173 840.7768,-176.5001 840.7768,-169.5001"/>
</g>
<!-- HomeComponent -->
<g id="node3" class="node">
<title>HomeComponent</title>
<polygon fill="#ffffb3" stroke="#000000" points="1188.5451,-122 1073.4549,-122 1073.4549,-86 1188.5451,-86 1188.5451,-122"/>
<text text-anchor="middle" x="1131" y="-99.8" font-family="Times,serif" font-size="14.00" fill="#000000">HomeComponent</text>
</g>
<!-- HomeComponent&#45;&gt;AppModule -->
<g id="edge3" class="edge">
<title>HomeComponent&#45;&gt;AppModule</title>
<path fill="none" stroke="#000000" d="M1131,-122.2667C1131,-140.5552 1131,-166 1131,-166 1131,-166 840.9359,-166 840.9359,-166"/>
<polygon fill="#000000" stroke="#000000" points="840.9359,-162.5001 830.9359,-166 840.9359,-169.5001 840.9359,-162.5001"/>
</g>
<!-- AppComponent  -->
<g id="node12" class="node">
<title>AppComponent </title>
<polygon fill="#80b1d3" stroke="#000000" points="843.439,-252 734.561,-252 734.561,-216 843.439,-216 843.439,-252"/>
<text text-anchor="middle" x="789" y="-229.8" font-family="Times,serif" font-size="14.00" fill="#000000">AppComponent </text>
</g>
<!-- AppModule&#45;&gt;AppComponent  -->
<g id="edge11" class="edge">
<title>AppModule&#45;&gt;AppComponent </title>
<path fill="none" stroke="#000000" stroke-dasharray="1,5" d="M789,-187.1061C789,-187.1061 789,-205.991 789,-205.991"/>
<polygon fill="#000000" stroke="#000000" points="785.5001,-205.9909 789,-215.991 792.5001,-205.991 785.5001,-205.9909"/>
</g>
<!-- BrowserModule -->
<g id="node5" class="node">
<title>BrowserModule</title>
<polygon fill="#8dd3c7" stroke="#000000" points="1049.4734,-122 1046.4734,-126 1025.4734,-126 1022.4734,-122 942.5266,-122 942.5266,-86 1049.4734,-86 1049.4734,-122"/>
<text text-anchor="middle" x="996" y="-99.8" font-family="Times,serif" font-size="14.00" fill="#000000">BrowserModule</text>
</g>
<!-- BrowserModule&#45;&gt;AppModule -->
<g id="edge4" class="edge">
<title>BrowserModule&#45;&gt;AppModule</title>
<path fill="none" stroke="#000000" d="M996,-122.0091C996,-138.0494 996,-159 996,-159 996,-159 840.8895,-159 840.8895,-159"/>
<polygon fill="#000000" stroke="#000000" points="840.8896,-155.5001 830.8895,-159 840.8895,-162.5001 840.8896,-155.5001"/>
</g>
<!-- AppRoutingModule -->
<g id="node6" class="node">
<title>AppRoutingModule</title>
<polygon fill="#8dd3c7" stroke="#000000" points="924.2744,-122 921.2744,-126 900.2744,-126 897.2744,-122 795.7256,-122 795.7256,-86 924.2744,-86 924.2744,-122"/>
<text text-anchor="middle" x="860" y="-99.8" font-family="Times,serif" font-size="14.00" fill="#000000">AppRoutingModule</text>
</g>
<!-- AppRoutingModule&#45;&gt;AppModule -->
<g id="edge5" class="edge">
<title>AppRoutingModule&#45;&gt;AppModule</title>
<path fill="none" stroke="#000000" d="M813.2206,-122.1061C813.2206,-122.1061 813.2206,-140.991 813.2206,-140.991"/>
<polygon fill="#000000" stroke="#000000" points="809.7206,-140.9909 813.2206,-150.991 816.7206,-140.991 809.7206,-140.9909"/>
</g>
<!-- HttpClientModule -->
<g id="node7" class="node">
<title>HttpClientModule</title>
<polygon fill="#8dd3c7" stroke="#000000" points="777.1611,-122 774.1611,-126 753.1611,-126 750.1611,-122 658.8389,-122 658.8389,-86 777.1611,-86 777.1611,-122"/>
<text text-anchor="middle" x="718" y="-99.8" font-family="Times,serif" font-size="14.00" fill="#000000">HttpClientModule</text>
</g>
<!-- HttpClientModule&#45;&gt;AppModule -->
<g id="edge6" class="edge">
<title>HttpClientModule&#45;&gt;AppModule</title>
<path fill="none" stroke="#000000" d="M762.2511,-122.1061C762.2511,-122.1061 762.2511,-140.991 762.2511,-140.991"/>
<polygon fill="#000000" stroke="#000000" points="758.7511,-140.9909 762.2511,-150.991 765.7511,-140.991 758.7511,-140.9909"/>
</g>
<!-- Ng2SearchPipeModule -->
<g id="node8" class="node">
<title>Ng2SearchPipeModule</title>
<polygon fill="#8dd3c7" stroke="#000000" points="640.1317,-122 637.1317,-126 616.1317,-126 613.1317,-122 493.8683,-122 493.8683,-86 640.1317,-86 640.1317,-122"/>
<text text-anchor="middle" x="567" y="-99.8" font-family="Times,serif" font-size="14.00" fill="#000000">Ng2SearchPipeModule</text>
</g>
<!-- Ng2SearchPipeModule&#45;&gt;AppModule -->
<g id="edge7" class="edge">
<title>Ng2SearchPipeModule&#45;&gt;AppModule</title>
<path fill="none" stroke="#000000" d="M567,-122.0091C567,-138.0494 567,-159 567,-159 567,-159 737.2435,-159 737.2435,-159"/>
<polygon fill="#000000" stroke="#000000" points="737.2435,-162.5001 747.2435,-159 737.2435,-155.5001 737.2435,-162.5001"/>
</g>
<!-- NgxPaginationModule -->
<g id="node9" class="node">
<title>NgxPaginationModule</title>
<polygon fill="#8dd3c7" stroke="#000000" points="475.5407,-122 472.5407,-126 451.5407,-126 448.5407,-122 332.4593,-122 332.4593,-86 475.5407,-86 475.5407,-122"/>
<text text-anchor="middle" x="404" y="-99.8" font-family="Times,serif" font-size="14.00" fill="#000000">NgxPaginationModule</text>
</g>
<!-- NgxPaginationModule&#45;&gt;AppModule -->
<g id="edge8" class="edge">
<title>NgxPaginationModule&#45;&gt;AppModule</title>
<path fill="none" stroke="#000000" d="M404,-122.2667C404,-140.5552 404,-166 404,-166 404,-166 737.0654,-166 737.0654,-166"/>
<polygon fill="#000000" stroke="#000000" points="737.0654,-169.5001 747.0654,-166 737.0653,-162.5001 737.0654,-169.5001"/>
</g>
<!-- FormsModule -->
<g id="node10" class="node">
<title>FormsModule</title>
<polygon fill="#8dd3c7" stroke="#000000" points="314.8288,-122 311.8288,-126 290.8288,-126 287.8288,-122 219.1712,-122 219.1712,-86 314.8288,-86 314.8288,-122"/>
<text text-anchor="middle" x="267" y="-99.8" font-family="Times,serif" font-size="14.00" fill="#000000">FormsModule</text>
</g>
<!-- FormsModule&#45;&gt;AppModule -->
<g id="edge9" class="edge">
<title>FormsModule&#45;&gt;AppModule</title>
<path fill="none" stroke="#000000" d="M267,-122.1289C267,-142.5724 267,-173 267,-173 267,-173 737.1649,-173 737.1649,-173"/>
<polygon fill="#000000" stroke="#000000" points="737.165,-176.5001 747.1649,-173 737.1649,-169.5001 737.165,-176.5001"/>
</g>
<!-- RouterModule.forRoot(args) -->
<g id="node11" class="node">
<title>RouterModule.forRoot(args)</title>
<polygon fill="#8dd3c7" stroke="#000000" points="201.8419,-122 198.8419,-126 177.8419,-126 174.8419,-122 24.1581,-122 24.1581,-86 201.8419,-86 201.8419,-122"/>
<text text-anchor="middle" x="113" y="-99.8" font-family="Times,serif" font-size="14.00" fill="#000000">RouterModule.forRoot(args)</text>
</g>
<!-- RouterModule.forRoot(args)&#45;&gt;AppModule -->
<g id="edge10" class="edge">
<title>RouterModule.forRoot(args)&#45;&gt;AppModule</title>
<path fill="none" stroke="#000000" d="M113,-122.0109C113,-144.4852 113,-180 113,-180 113,-180 737.2233,-180 737.2233,-180"/>
<polygon fill="#000000" stroke="#000000" points="737.2234,-183.5001 747.2233,-180 737.2233,-176.5001 737.2234,-183.5001"/>
</g>
</g>
</svg>
