<?xml version="1.0" encoding="UTF-8" standalone="no"?>
<!DOCTYPE svg PUBLIC "-//W3C//DTD SVG 1.1//EN"
 "http://www.w3.org/Graphics/SVG/1.1/DTD/svg11.dtd">
<!-- Generated by graphviz version 2.40.1 (20161225.0304)
 -->
<!-- Title: dependencies Pages: 1 -->
<svg width="1624pt" height="355pt"
 viewBox="0.00 0.00 1624.00 355.00" xmlns="http://www.w3.org/2000/svg" xmlns:xlink="http://www.w3.org/1999/xlink">
<g id="graph0" class="graph" transform="scale(1 1) rotate(0) translate(4 351)">
<title>dependencies</title>
<polygon fill="#ffffff" stroke="transparent" points="-4,4 -4,-351 1620,-351 1620,4 -4,4"/>
<text text-anchor="start" x="787.0091" y="-42.4" font-family="sans-serif" font-weight="bold" font-size="14.00" fill="#000000">Legend</text>
<polygon fill="#ffffb3" stroke="transparent" points="574,-10 574,-30 594,-30 594,-10 574,-10"/>
<text text-anchor="start" x="597.629" y="-15.4" font-family="sans-serif" font-size="14.00" fill="#000000"> &#160;Declarations</text>
<polygon fill="#8dd3c7" stroke="transparent" points="687,-10 687,-30 707,-30 707,-10 687,-10"/>
<text text-anchor="start" x="710.7251" y="-15.4" font-family="sans-serif" font-size="14.00" fill="#000000"> &#160;Module</text>
<polygon fill="#80b1d3" stroke="transparent" points="773,-10 773,-30 793,-30 793,-10 773,-10"/>
<text text-anchor="start" x="796.7812" y="-15.4" font-family="sans-serif" font-size="14.00" fill="#000000"> &#160;Bootstrap</text>
<polygon fill="#fdb462" stroke="transparent" points="870,-10 870,-30 890,-30 890,-10 870,-10"/>
<text text-anchor="start" x="893.6732" y="-15.4" font-family="sans-serif" font-size="14.00" fill="#000000"> &#160;Providers</text>
<polygon fill="#fb8072" stroke="transparent" points="966,-10 966,-30 986,-30 986,-10 966,-10"/>
<text text-anchor="start" x="989.7258" y="-15.4" font-family="sans-serif" font-size="14.00" fill="#000000"> &#160;Exports</text>
<g id="clust1" class="cluster">
<title>cluster_AppModule</title>
<polygon fill="none" stroke="#000000" stroke-dasharray="1,5" points="8,-70 8,-339 1466,-339 1466,-70 8,-70"/>
</g>
<g id="clust2" class="cluster">
<title>cluster_AppModule_declarations</title>
<polygon fill="none" stroke="#000000" points="128,-143 128,-195 556,-195 556,-143 128,-143"/>
</g>
<g id="clust6" class="cluster">
<title>cluster_AppModule_imports</title>
<polygon fill="none" stroke="#000000" points="564,-78 564,-195 1458,-195 1458,-78 564,-78"/>
</g>
<g id="clust8" class="cluster">
<title>cluster_AppModule_bootstrap</title>
<polygon fill="none" stroke="#000000" points="45,-279 45,-331 169,-331 169,-279 45,-279"/>
</g>
<g id="clust10" class="cluster">
<title>cluster_AppRoutingModule</title>
<polygon fill="none" stroke="#000000" stroke-dasharray="1,5" points="1474,-203 1474,-271 1608,-271 1608,-203 1474,-203"/>
</g>
<g id="clust13" class="cluster">
<title>cluster_AppRoutingModule_exports</title>
<polygon fill="none" stroke="#000000" points="1482,-211 1482,-263 1600,-263 1600,-211 1482,-211"/>
</g>
<!-- AppComponent -->
<g id="node1" class="node">
<title>AppComponent</title>
<polygon fill="#ffffb3" stroke="#000000" points="547.9399,-187 442.0601,-187 442.0601,-151 547.9399,-151 547.9399,-187"/>
<text text-anchor="middle" x="495" y="-164.8" font-family="Times,serif" font-size="14.00" fill="#000000">AppComponent</text>
</g>
<!-- AppModule -->
<g id="node4" class="node">
<title>AppModule</title>
<polygon fill="#8dd3c7" stroke="#000000" points="148.6571,-255 145.6571,-259 124.6571,-259 121.6571,-255 65.3429,-255 65.3429,-219 148.6571,-219 148.6571,-255"/>
<text text-anchor="middle" x="107" y="-232.8" font-family="Times,serif" font-size="14.00" fill="#000000">AppModule</text>
</g>
<!-- AppComponent&#45;&gt;AppModule -->
<g id="edge1" class="edge">
<title>AppComponent&#45;&gt;AppModule</title>
<path fill="none" stroke="#000000" d="M495,-187.0336C495,-204.0597 495,-227 495,-227 495,-227 158.8914,-227 158.8914,-227"/>
<polygon fill="#000000" stroke="#000000" points="158.8915,-223.5001 148.8914,-227 158.8914,-230.5001 158.8915,-223.5001"/>
</g>
<!-- VideoDetailsComponent -->
<g id="node2" class="node">
<title>VideoDetailsComponent</title>
<polygon fill="#ffffb3" stroke="#000000" points="424.6965,-187 269.3035,-187 269.3035,-151 424.6965,-151 424.6965,-187"/>
<text text-anchor="middle" x="347" y="-164.8" font-family="Times,serif" font-size="14.00" fill="#000000">VideoDetailsComponent</text>
</g>
<!-- VideoDetailsComponent&#45;&gt;AppModule -->
<g id="edge2" class="edge">
<title>VideoDetailsComponent&#45;&gt;AppModule</title>
<path fill="none" stroke="#000000" d="M347,-187.2819C347,-202.9478 347,-223 347,-223 347,-223 158.8048,-223 158.8048,-223"/>
<polygon fill="#000000" stroke="#000000" points="158.8048,-219.5001 148.8048,-223 158.8048,-226.5001 158.8048,-219.5001"/>
</g>
<!-- HomeComponent -->
<g id="node3" class="node">
<title>HomeComponent</title>
<polygon fill="#ffffb3" stroke="#000000" points="251.5451,-187 136.4549,-187 136.4549,-151 251.5451,-151 251.5451,-187"/>
<text text-anchor="middle" x="194" y="-164.8" font-family="Times,serif" font-size="14.00" fill="#000000">HomeComponent</text>
</g>
<!-- HomeComponent&#45;&gt;AppModule -->
<g id="edge3" class="edge">
<title>HomeComponent&#45;&gt;AppModule</title>
<path fill="none" stroke="#000000" d="M142.5281,-187.2228C142.5281,-187.2228 142.5281,-208.7269 142.5281,-208.7269"/>
<polygon fill="#000000" stroke="#000000" points="139.0281,-208.7269 142.5281,-218.7269 146.0281,-208.727 139.0281,-208.7269"/>
</g>
<!-- AppComponent  -->
<g id="node12" class="node">
<title>AppComponent </title>
<polygon fill="#80b1d3" stroke="#000000" points="161.439,-323 52.561,-323 52.561,-287 161.439,-287 161.439,-323"/>
<text text-anchor="middle" x="107" y="-300.8" font-family="Times,serif" font-size="14.00" fill="#000000">AppComponent </text>
</g>
<!-- AppModule&#45;&gt;AppComponent  -->
<g id="edge11" class="edge">
<title>AppModule&#45;&gt;AppComponent </title>
<path fill="none" stroke="#000000" stroke-dasharray="1,5" d="M107,-255.2228C107,-255.2228 107,-276.7269 107,-276.7269"/>
<polygon fill="#000000" stroke="#000000" points="103.5001,-276.7269 107,-286.7269 110.5001,-276.727 103.5001,-276.7269"/>
</g>
<!-- BrowserModule -->
<g id="node5" class="node">
<title>BrowserModule</title>
<polygon fill="#8dd3c7" stroke="#000000" points="678.4734,-122 675.4734,-126 654.4734,-126 651.4734,-122 571.5266,-122 571.5266,-86 678.4734,-86 678.4734,-122"/>
<text text-anchor="middle" x="625" y="-99.8" font-family="Times,serif" font-size="14.00" fill="#000000">BrowserModule</text>
</g>
<!-- BrowserModule&#45;&gt;AppModule -->
<g id="edge4" class="edge">
<title>BrowserModule&#45;&gt;AppModule</title>
<path fill="none" stroke="#000000" d="M571.3546,-104C437.7282,-104 100.6998,-104 100.6998,-104 100.6998,-104 100.6998,-208.7858 100.6998,-208.7858"/>
<polygon fill="#000000" stroke="#000000" points="97.1998,-208.7858 100.6999,-218.7858 104.1998,-208.7858 97.1998,-208.7858"/>
</g>
<!-- AppRoutingModule -->
<g id="node6" class="node">
<title>AppRoutingModule</title>
<polygon fill="#8dd3c7" stroke="#000000" points="1425.2744,-187 1422.2744,-191 1401.2744,-191 1398.2744,-187 1296.7256,-187 1296.7256,-151 1425.2744,-151 1425.2744,-187"/>
<text text-anchor="middle" x="1361" y="-164.8" font-family="Times,serif" font-size="14.00" fill="#000000">AppRoutingModule</text>
</g>
<!-- AppRoutingModule&#45;&gt;AppModule -->
<g id="edge5" class="edge">
<title>AppRoutingModule&#45;&gt;AppModule</title>
<path fill="none" stroke="#000000" d="M1361,-187.1985C1361,-211.3563 1361,-251 1361,-251 1361,-251 158.7228,-251 158.7228,-251"/>
<polygon fill="#000000" stroke="#000000" points="158.7229,-247.5001 148.7228,-251 158.7228,-254.5001 158.7229,-247.5001"/>
</g>
<!-- RouterModule  -->
<g id="node13" class="node">
<title>RouterModule </title>
<polygon fill="#fb8072" stroke="#000000" points="1591.6523,-255 1490.3477,-255 1490.3477,-219 1591.6523,-219 1591.6523,-255"/>
<text text-anchor="middle" x="1541" y="-232.8" font-family="Times,serif" font-size="14.00" fill="#000000">RouterModule </text>
</g>
<!-- AppRoutingModule&#45;&gt;RouterModule  -->
<g id="edge13" class="edge">
<title>AppRoutingModule&#45;&gt;RouterModule </title>
<path fill="none" stroke="#000000" stroke-dasharray="5,2" d="M1425.4757,-169C1477.1248,-169 1541,-169 1541,-169 1541,-169 1541,-208.7772 1541,-208.7772"/>
<polygon fill="#000000" stroke="#000000" points="1537.5001,-208.7772 1541,-218.7772 1544.5001,-208.7773 1537.5001,-208.7772"/>
</g>
<!-- HttpClientModule -->
<g id="node7" class="node">
<title>HttpClientModule</title>
<polygon fill="#8dd3c7" stroke="#000000" points="815.1611,-122 812.1611,-126 791.1611,-126 788.1611,-122 696.8389,-122 696.8389,-86 815.1611,-86 815.1611,-122"/>
<text text-anchor="middle" x="756" y="-99.8" font-family="Times,serif" font-size="14.00" fill="#000000">HttpClientModule</text>
</g>
<!-- HttpClientModule&#45;&gt;AppModule -->
<g id="edge6" class="edge">
<title>HttpClientModule&#45;&gt;AppModule</title>
<path fill="none" stroke="#000000" d="M756,-122.196C756,-157.3126 756,-231 756,-231 756,-231 159.0826,-231 159.0826,-231"/>
<polygon fill="#000000" stroke="#000000" points="159.0827,-227.5001 149.0826,-231 159.0826,-234.5001 159.0827,-227.5001"/>
</g>
<!-- Ng2SearchPipeModule -->
<g id="node8" class="node">
<title>Ng2SearchPipeModule</title>
<polygon fill="#8dd3c7" stroke="#000000" points="980.1317,-122 977.1317,-126 956.1317,-126 953.1317,-122 833.8683,-122 833.8683,-86 980.1317,-86 980.1317,-122"/>
<text text-anchor="middle" x="907" y="-99.8" font-family="Times,serif" font-size="14.00" fill="#000000">Ng2SearchPipeModule</text>
</g>
<!-- Ng2SearchPipeModule&#45;&gt;AppModule -->
<g id="edge7" class="edge">
<title>Ng2SearchPipeModule&#45;&gt;AppModule</title>
<path fill="none" stroke="#000000" d="M907,-122.215C907,-158.2102 907,-235 907,-235 907,-235 158.8851,-235 158.8851,-235"/>
<polygon fill="#000000" stroke="#000000" points="158.8851,-231.5001 148.8851,-235 158.8851,-238.5001 158.8851,-231.5001"/>
</g>
<!-- NgxPaginationModule -->
<g id="node9" class="node">
<title>NgxPaginationModule</title>
<polygon fill="#8dd3c7" stroke="#000000" points="1141.5407,-122 1138.5407,-126 1117.5407,-126 1114.5407,-122 998.4593,-122 998.4593,-86 1141.5407,-86 1141.5407,-122"/>
<text text-anchor="middle" x="1070" y="-99.8" font-family="Times,serif" font-size="14.00" fill="#000000">NgxPaginationModule</text>
</g>
<!-- NgxPaginationModule&#45;&gt;AppModule -->
<g id="edge8" class="edge">
<title>NgxPaginationModule&#45;&gt;AppModule</title>
<path fill="none" stroke="#000000" d="M1070,-122.2067C1070,-159.0559 1070,-239 1070,-239 1070,-239 158.688,-239 158.688,-239"/>
<polygon fill="#000000" stroke="#000000" points="158.688,-235.5001 148.688,-239 158.688,-242.5001 158.688,-235.5001"/>
</g>
<!-- FormsModule -->
<g id="node10" class="node">
<title>FormsModule</title>
<polygon fill="#8dd3c7" stroke="#000000" points="1254.8288,-122 1251.8288,-126 1230.8288,-126 1227.8288,-122 1159.1712,-122 1159.1712,-86 1254.8288,-86 1254.8288,-122"/>
<text text-anchor="middle" x="1207" y="-99.8" font-family="Times,serif" font-size="14.00" fill="#000000">FormsModule</text>
</g>
<!-- FormsModule&#45;&gt;AppModule -->
<g id="edge9" class="edge">
<title>FormsModule&#45;&gt;AppModule</title>
<path fill="none" stroke="#000000" d="M1207,-122.1718C1207,-159.8494 1207,-243 1207,-243 1207,-243 158.7781,-243 158.7781,-243"/>
<polygon fill="#000000" stroke="#000000" points="158.7781,-239.5001 148.7781,-243 158.7781,-246.5001 158.7781,-239.5001"/>
</g>
<!-- RouterModule.forRoot(args) -->
<g id="node11" class="node">
<title>RouterModule.forRoot(args)</title>
<polygon fill="#8dd3c7" stroke="#000000" points="1449.8419,-122 1446.8419,-126 1425.8419,-126 1422.8419,-122 1272.1581,-122 1272.1581,-86 1449.8419,-86 1449.8419,-122"/>
<text text-anchor="middle" x="1361" y="-99.8" font-family="Times,serif" font-size="14.00" fill="#000000">RouterModule.forRoot(args)</text>
</g>
<!-- RouterModule.forRoot(args)&#45;&gt;AppModule -->
<g id="edge10" class="edge">
<title>RouterModule.forRoot(args)&#45;&gt;AppModule</title>
<path fill="none" stroke="#000000" d="M1284.4711,-122.111C1284.4711,-160.5903 1284.4711,-247 1284.4711,-247 1284.4711,-247 158.9068,-247 158.9068,-247"/>
<polygon fill="#000000" stroke="#000000" points="158.9069,-243.5001 148.9068,-247 158.9068,-250.5001 158.9069,-243.5001"/>
</g>
<!-- RouterModule.forRoot(args)&#45;&gt;AppRoutingModule -->
<g id="edge12" class="edge">
<title>RouterModule.forRoot(args)&#45;&gt;AppRoutingModule</title>
<path fill="none" stroke="#000000" d="M1361,-122.1061C1361,-122.1061 1361,-140.991 1361,-140.991"/>
<polygon fill="#000000" stroke="#000000" points="1357.5001,-140.9909 1361,-150.991 1364.5001,-140.991 1357.5001,-140.9909"/>
</g>
</g>
</svg>
